<svg width="47" height="83" viewBox="0 0 47 83" fill="none" xmlns="http://www.w3.org/2000/svg">
<mask id="path-1-outside-1_8_50" maskUnits="userSpaceOnUse" x="-5.13455" y="-4.90177" width="96.2025" height="95.7042" fill="black">
<rect fill="white" x="-5.13455" y="-4.90177" width="96.2025" height="95.7042"/>
<path d="M22.4371 68.7813L32.3651 46.8607L10.4445 36.9327L17.0456 22.3579L38.9662 32.2859L48.8414 10.482L63.4162 17.083L53.541 38.887L75.345 48.7622L68.7439 63.337L46.9399 53.4618L37.0119 75.3824L22.4371 68.7813Z"/>
</mask>
<path d="M22.4371 68.7813L18.7934 67.131L17.1431 70.7747L20.7868 72.425L22.4371 68.7813ZM32.3651 46.8607L36.0088 48.511L37.6591 44.8673L34.0154 43.217L32.3651 46.8607ZM10.4445 36.9327L6.80084 35.2824L5.15057 38.9261L8.79427 40.5764L10.4445 36.9327ZM17.0456 22.3579L18.6959 18.7142L15.0522 17.0639L13.4019 20.7076L17.0456 22.3579ZM38.9662 32.2859L37.3159 35.9296L40.9596 37.5799L42.6099 33.9362L38.9662 32.2859ZM48.8414 10.482L50.4917 6.83825L46.848 5.18798L45.1977 8.83169L48.8414 10.482ZM63.4162 17.083L67.0599 18.7333L68.7102 15.0896L65.0665 13.4393L63.4162 17.083ZM53.541 38.887L49.8973 37.2367L48.247 40.8804L51.8907 42.5307L53.541 38.887ZM75.345 48.7622L78.9887 50.4125L80.6389 46.7688L76.9952 45.1185L75.345 48.7622ZM68.7439 63.337L67.0936 66.9808L70.7373 68.631L72.3876 64.9873L68.7439 63.337ZM46.9399 53.4618L48.5902 49.8181L44.9465 48.1678L43.2962 51.8115L46.9399 53.4618ZM37.0119 75.3824L35.3616 79.0261L39.0053 80.6763L40.6556 77.0326L37.0119 75.3824ZM26.0808 70.4316L36.0088 48.511L28.7214 45.2105L18.7934 67.131L26.0808 70.4316ZM34.0154 43.217L12.0948 33.289L8.79427 40.5764L30.7148 50.5044L34.0154 43.217ZM14.0883 38.583L20.6893 24.0081L13.4019 20.7076L6.80084 35.2824L14.0883 38.583ZM15.3954 26.0016L37.3159 35.9296L40.6164 28.6422L18.6959 18.7142L15.3954 26.0016ZM42.6099 33.9362L52.4851 12.1322L45.1977 8.83169L35.3225 30.6356L42.6099 33.9362ZM47.1911 14.1257L61.766 20.7268L65.0665 13.4393L50.4917 6.83825L47.1911 14.1257ZM59.7725 15.4328L49.8973 37.2367L57.1847 40.5373L67.0599 18.7333L59.7725 15.4328ZM51.8907 42.5307L73.6947 52.4059L76.9952 45.1185L55.1913 35.2433L51.8907 42.5307ZM71.7012 47.1119L65.1002 61.6868L72.3876 64.9873L78.9887 50.4125L71.7012 47.1119ZM70.3941 59.6933L48.5902 49.8181L45.2897 57.1055L67.0936 66.9808L70.3941 59.6933ZM43.2962 51.8115L33.3682 73.7321L40.6556 77.0326L50.5836 55.1121L43.2962 51.8115ZM38.6622 71.7387L24.0873 65.1376L20.7868 72.425L35.3616 79.0261L38.6622 71.7387Z" fill="#121210" mask="url(#path-1-outside-1_8_50)"/>
</svg>
