<svg width="639" height="823" viewBox="0 0 639 823" fill="none" xmlns="http://www.w3.org/2000/svg">
<path fill-rule="evenodd" clip-rule="evenodd" d="M1187.67 150.338C1212.64 233.961 1257.33 328.86 1216.25 407.01C1173.88 487.602 1066.86 515.098 979.111 547.053C909.93 572.245 826.567 537.526 762.022 572.419C679.534 617.012 661.17 747.117 569.394 768.547C486.767 787.839 395.981 732.058 340.504 670.841C285.528 610.176 319.336 507.779 272.577 441.015C224.189 371.927 79.2391 370.645 71.9099 287.336C64.4509 202.55 211.445 173.927 242.023 93.7231C271.643 16.0364 194.616 -79.5132 238.872 -150.582C280.732 -217.803 383.505 -215.927 456.486 -250.674C537.901 -289.436 613.938 -403.799 696.214 -368.325C794.264 -326.05 778.329 -286.038 860.282 -219.383C924.615 -167.058 1076.39 -283.264 1145.53 -236.924C1261.49 -212.483 1164.94 74.2451 1187.67 150.338Z" fill="#E9FF0C"/>
<path d="M689.987 254.739C676.893 237.099 650.994 234.611 632.141 249.182C613.288 263.752 608.62 289.864 621.715 307.504C634.81 325.143 660.709 327.631 679.562 313.06C698.415 298.49 703.082 272.378 689.987 254.739Z" fill="black" fill-opacity="0.23"/>
<path d="M653.929 322.53C655.155 322.486 656.384 322.385 657.613 322.232C657.613 322.23 657.613 322.228 657.613 322.226C656.776 314.314 653.269 273.205 666.443 240.78C666.5 240.641 666.531 240.498 666.554 240.356C665.326 240.133 664.084 239.965 662.831 239.857C649.605 272.92 653.063 314.277 653.929 322.53Z" fill="#0E0D0D" fill-opacity="0.54"/>
<path d="M669.004 318.643C669.024 318.835 669.08 319.013 669.15 319.182C670.317 318.694 671.471 318.156 672.61 317.56C671.583 307.209 669.499 274.631 679.781 245.411C678.722 244.759 677.632 244.166 676.517 243.625C676.466 243.716 676.418 243.81 676.382 243.912C665.509 274.604 667.987 308.871 669.004 318.643Z" fill="#0E0D0D" fill-opacity="0.54"/>
<path d="M638.393 320.007C639.604 320.462 640.838 320.855 642.093 321.187C642.155 320.963 642.18 320.724 642.154 320.478C641.365 312.938 638.084 273.695 651.03 241.564C651.177 241.199 651.192 240.819 651.117 240.46C649.776 240.723 648.437 241.052 647.108 241.446C634.853 273.064 637.484 310.66 638.393 320.007Z" fill="#0E0D0D" fill-opacity="0.54"/>
<path d="M630.444 250.486C622.867 270.437 621.186 291.55 621.258 306.78C621.413 306.996 621.556 307.218 621.715 307.432C622.547 308.553 623.432 309.611 624.362 310.609C624.743 310.256 624.985 309.749 624.976 309.183C624.704 293.45 626.228 270.223 635.027 248.924C635.274 248.326 635.184 247.677 634.862 247.171C633.943 247.783 633.033 248.421 632.143 249.109C631.562 249.557 630.997 250.017 630.444 250.486Z" fill="#0E0D0D" fill-opacity="0.54"/>
<path d="M696.142 280.792C662.007 284.946 624.874 270.662 617.749 267.744C617.258 268.904 616.814 270.077 616.425 271.263C626.69 275.463 662.482 288.683 696.577 284.533C696.667 284.522 696.753 284.498 696.838 284.474C697.026 283.332 697.176 282.187 697.271 281.04C696.938 280.846 696.552 280.742 696.142 280.792Z" fill="#989592"/>
<path d="M631.372 255.009L630.905 254.818C629.958 254.432 628.882 254.902 628.502 255.868C628.123 256.835 628.582 257.933 629.529 258.318L629.995 258.508C639.389 262.344 664.341 272.538 695.88 270.199C696.152 270.179 696.403 270.096 696.628 269.971C696.395 268.784 696.107 267.61 695.764 266.448C695.714 266.448 695.667 266.436 695.616 266.44C664.927 268.716 640.548 258.757 631.372 255.009Z" fill="#989592"/>
<path d="M682.24 308.804C659.926 311.658 634.969 307.445 620.377 302.972C619.895 302.824 619.402 302.889 618.989 303.11C619.763 304.532 620.631 305.918 621.606 307.253C636.653 311.556 658.906 315.002 679.889 312.848C681.276 311.76 682.58 310.606 683.81 309.401C683.42 308.974 682.851 308.726 682.24 308.804Z" fill="#989592"/>
<path d="M692.5 296.272C660.153 300.111 625.239 287.512 615.892 283.67L614.997 283.303C614.778 283.213 614.552 283.174 614.33 283.172C614.329 283.187 614.33 283.204 614.329 283.219C614.287 284.479 614.303 285.737 614.377 286.99C614.379 287.031 614.379 287.072 614.382 287.114L614.509 287.165C623.894 291.023 658.325 303.476 691.061 300.206C691.823 298.939 692.515 297.642 693.144 296.324C692.937 296.273 692.723 296.245 692.5 296.272Z" fill="#989592"/>
<path d="M624.685 304.604C624.685 304.604 627.962 331.033 649.771 338.391C649.771 338.391 643.743 339.942 636.651 339.137C620.58 337.314 612.884 317.401 623.913 305.405C624.161 305.136 624.418 304.869 624.685 304.604Z" fill="black" fill-opacity="0.23"/>
<path d="M624.695 304.601C624.695 304.601 614.52 329.044 629.868 346.526C629.868 346.526 623.874 344.784 618.107 340.468C605.038 330.689 608.088 309.589 623.532 304.879C623.878 304.774 624.333 304.694 624.695 304.601Z" fill="black" fill-opacity="0.23"/>
<path d="M624.638 304.56C624.638 304.56 600.491 294.16 599.457 270.75C599.457 270.75 596.361 276.249 595.199 283.433C592.566 299.709 609.27 312.66 623.577 305.078C623.898 304.908 624.316 304.752 624.638 304.56Z" fill="black" fill-opacity="0.23"/>
<path d="M624.643 304.551C624.643 304.551 598.778 307.79 586.442 287.981C586.442 287.981 586.461 294.339 588.971 301.173C594.658 316.658 615.389 319.378 624.017 305.485C624.21 305.172 624.458 304.882 624.643 304.551Z" fill="black" fill-opacity="0.23"/>
</svg>
