<svg width="203" height="147" viewBox="0 0 203 147" fill="none" xmlns="http://www.w3.org/2000/svg">
<g clip-path="url(#clip0_9_6955)">
<path fill-rule="evenodd" clip-rule="evenodd" d="M129.188 78.0683C120.572 85.1542 110.496 87.8981 98.9789 86.269C87.4452 84.6375 77.814 79.1229 70.0853 69.725C62.3878 60.365 58.8279 49.8573 59.4551 38.209C60.0728 26.5844 64.6872 17.1995 73.3035 10.1136C81.8938 3.04911 91.9505 0.352775 103.509 1.9794C115.067 3.63926 124.707 9.13016 132.397 18.4807C140.126 27.8786 143.668 38.4005 143.033 50.0394C142.374 61.6664 137.779 71.0038 129.188 78.0683ZM71.8693 -3.33322C76.1909 -1.88477 79.8626 -2.39513 85.2372 -7.2439L99.5948 -19.0514C101.578 -20.7298 98.5566 -24.8993 96.1434 -23.2482L84.3711 -13.821C82.1832 -12.0375 79.1765 -15.552 81.4339 -17.3925L93.6057 -27.1484C95.7208 -28.9672 92.8216 -32.9353 90.4114 -31.0326C87.0674 -28.2825 81.5836 -24.0268 78.2396 -21.2767C76.2847 -19.3515 73.2799 -22.4387 75.7386 -24.3178L87.8323 -34.0093C89.3864 -35.4304 88.3634 -37.8605 86.5083 -38.5583C84.5223 -39.2912 83.0971 -37.6427 81.6519 -36.5495L67.5059 -25.7418C63.5727 -22.3802 61.267 -18.5624 62.6907 -14.0161C62.9107 -13.3237 63.3378 -12.4679 63.9105 -11.5414L29.4347 14.8418C27.3911 16.4112 27.2238 19.5186 28.93 21.5933L29.3196 22.067C31.2439 24.407 34.705 24.8798 36.8827 22.9777L69.1002 -5.24854C70.1525 -4.28764 71.1272 -3.5805 71.8693 -3.33322ZM109.054 109.603L139.103 84.7951C135.734 68.2701 162.245 52.6145 171.588 64.2416C182.956 78.3651 157.992 101.674 145.198 92.0112L115.617 117.831C110.024 122.716 102.677 114.862 109.054 109.603ZM117.544 63.8553C112.523 67.984 106.66 69.5824 99.9205 68.6291C93.2067 67.6711 87.5851 64.4649 83.0819 58.9891C78.6099 53.5512 76.5495 47.4164 76.9059 40.6439C77.2796 33.8571 79.9723 28.403 84.9927 24.2743C89.9784 20.1741 95.8498 18.5853 102.564 19.5433C109.285 20.5108 114.899 23.7075 119.371 29.1454C128.408 40.1515 127.636 55.5551 117.544 63.8553ZM121.353 68.4879C127.52 63.4164 130.845 56.7121 131.295 48.3539C131.745 39.9957 129.172 32.4404 123.601 25.6667C118.046 18.912 111.145 14.9473 102.881 13.8034C94.5932 12.6311 87.3498 14.5701 81.1829 19.6416C74.9986 24.7275 71.6975 31.4602 71.23 39.8327C70.7479 48.1696 73.2796 55.7273 78.8346 62.4821C84.3973 69.2463 91.3396 73.2086 99.6439 74.3832C107.95 75.5246 115.178 73.5666 121.353 68.4879Z" fill="#767070" fill-opacity="0.31"/>
</g>
<defs>
<clipPath id="clip0_9_6955">
<rect width="150.722" height="138.187" fill="white" transform="translate(106.731 -58) rotate(50.5666)"/>
</clipPath>
</defs>
</svg>
