<svg width="671" height="396" viewBox="0 0 671 396" fill="none" xmlns="http://www.w3.org/2000/svg">
<g filter="url(#filter0_df_18_6)">
<path d="M232.162 186.506C240.545 179.041 248.928 179.041 252.653 187.128C255.448 184.64 258.242 181.529 259.639 182.151C268.022 184.64 276.405 185.262 285.719 182.773C287.582 182.773 288.979 183.396 290.376 184.64C293.17 186.506 295.499 188.994 300.156 182.151C302.019 179.663 306.21 179.041 308.073 180.285C312.73 182.773 317.853 182.151 323.907 179.663C324.373 180.285 325.304 180.285 326.236 179.663C330.893 179.041 334.153 184.64 340.207 179.041C344.864 173.443 349.056 177.175 354.178 170.333C353.713 174.065 353.713 175.931 353.713 178.419C362.561 178.419 371.41 178.419 380.258 178.419C384.915 178.419 390.038 179.041 395.161 177.797C396.558 177.175 398.421 174.065 400.284 171.577C419.378 174.687 439.869 172.199 462.224 162.247C470.606 159.136 478.989 160.381 487.372 159.758C491.563 159.136 495.289 159.136 499.481 157.27C506.932 154.16 510.658 156.648 512.055 165.979C512.52 171.577 513.452 175.931 514.383 180.907C515.78 185.884 514.849 191.482 511.123 197.702C508.795 200.812 506.932 204.544 504.603 207.655C501.809 212.631 498.549 213.875 495.289 213.253C489.701 212.009 483.181 212.009 477.126 212.009C476.195 210.143 475.263 208.899 474.332 207.033C473.401 208.277 472.935 208.899 472.469 209.521C473.866 210.765 475.729 210.765 477.126 212.009C476.195 213.253 475.729 215.119 474.332 216.363C469.209 220.095 460.826 220.095 455.704 216.363C458.498 215.119 460.826 213.253 464.552 211.387C463.155 210.143 462.689 209.521 461.758 210.143C458.498 210.765 454.306 213.875 451.512 212.009C447.321 210.765 444.992 218.851 441.732 220.095C438.007 220.717 442.198 210.765 436.609 212.631C430.555 215.119 424.967 214.497 419.378 215.119C416.584 214.497 413.324 215.741 412.858 210.143C412.392 207.033 408.201 206.411 405.407 207.033C397.49 208.899 389.573 212.631 381.655 215.119C381.19 215.741 380.258 215.741 379.793 215.741C367.684 212.009 353.247 218.229 339.276 220.095C333.221 220.717 327.167 218.851 321.113 218.229C315.99 217.607 311.333 215.741 304.813 221.339C303.416 223.205 301.553 222.583 299.69 222.583C290.842 222.583 281.993 223.205 273.145 223.205C264.296 223.827 255.447 223.827 246.599 223.827C244.736 224.449 242.408 226.315 239.148 228.181C235.888 224.449 230.765 224.449 224.245 228.804C221.916 230.048 219.588 230.67 217.259 230.67C209.342 230.67 201.891 229.426 193.974 228.804C186.056 228.181 178.139 228.181 170.222 228.181C152.991 227.559 135.76 226.315 118.528 226.315C112.94 226.315 106.42 228.181 100.365 230.67C98.5026 231.292 96.6397 235.024 92.9141 240C79.8741 237.512 65.4371 235.646 51 233.158C51.4657 226.937 52.3971 221.339 52.3971 216.985C51.9314 205.789 56.5885 196.458 64.5056 187.75C68.697 182.774 71.957 180.907 75.6827 180.285C85.4627 179.663 95.2426 179.663 105.023 177.797C108.283 177.797 112.474 175.931 115.734 172.821C119.46 169.711 122.254 168.467 125.048 168.467C136.225 169.711 147.868 169.711 158.579 171.577C168.825 172.821 177.674 179.041 188.385 178.419C203.753 179.041 216.328 187.128 232.162 186.506C234.49 190.238 238.216 190.86 242.408 188.994C239.613 186.506 236.819 183.396 232.162 186.506ZM217.725 196.458C218.191 195.836 218.656 196.458 219.588 196.458C219.588 195.836 220.053 194.592 220.053 193.97C219.588 193.97 219.122 193.348 218.191 193.348C218.191 193.97 217.725 195.214 217.725 196.458ZM293.636 233.158C300.622 223.205 303.416 228.804 308.073 231.292C302.019 235.646 298.293 233.78 293.636 233.158ZM348.124 228.804C344.398 229.426 341.138 230.048 337.413 230.048C337.413 228.804 337.413 228.181 337.878 227.559C342.07 224.449 345.796 221.961 349.056 225.071C348.59 226.937 348.59 227.559 348.124 228.804ZM387.71 217.607C389.573 216.985 391.901 216.363 394.23 215.741C390.97 223.205 389.107 220.095 387.71 217.607ZM404.941 213.875C403.544 215.741 402.612 216.985 402.147 216.985C401.681 216.363 401.215 215.741 400.75 214.497C401.215 214.497 402.147 212.631 402.612 213.253C403.544 212.631 404.01 213.253 404.941 213.875ZM372.341 230.67C371.41 231.292 370.478 231.914 370.013 231.914C369.547 231.914 369.547 231.292 369.081 230.67C370.013 230.048 370.944 229.426 371.41 228.804C371.875 228.804 371.875 230.048 372.341 230.67Z" fill="url(#paint0_linear_18_6)"/>
</g>
<path d="M432.479 232.534C431.279 232.534 430.293 232.188 429.519 231.494C428.773 230.774 428.399 229.894 428.399 228.854C428.399 227.788 428.773 226.894 429.519 226.174C430.293 225.454 431.279 225.094 432.479 225.094C433.653 225.094 434.613 225.454 435.359 226.174C436.133 226.894 436.519 227.788 436.519 228.854C436.519 229.894 436.133 230.774 435.359 231.494C434.613 232.188 433.653 232.534 432.479 232.534ZM432.479 216.254C431.279 216.254 430.293 215.908 429.519 215.214C428.773 214.494 428.399 213.614 428.399 212.574C428.399 211.508 428.773 210.614 429.519 209.894C430.293 209.174 431.279 208.814 432.479 208.814C433.653 208.814 434.613 209.174 435.359 209.894C436.133 210.614 436.519 211.508 436.519 212.574C436.519 213.614 436.133 214.494 435.359 215.214C434.613 215.908 433.653 216.254 432.479 216.254ZM447.283 240.574V239.934C449.95 237.161 452.016 233.881 453.483 230.094C454.95 226.308 455.683 222.374 455.683 218.294C455.683 214.188 454.923 210.201 453.403 206.334C451.883 202.441 449.723 199.108 446.923 196.334V195.694H453.643C456.39 198.201 458.51 201.454 460.003 205.454C461.496 209.428 462.243 213.708 462.243 218.294C462.243 222.828 461.523 227.054 460.083 230.974C458.643 234.894 456.63 238.094 454.043 240.574H447.283Z" fill="black"/>
<path d="M83.6899 206.147V211.627H72.2499V217.547H80.8099V222.867H72.2499V234.227H65.4099V206.147H83.6899ZM97.4449 234.547C95.2583 234.547 93.2849 234.08 91.5249 233.147C89.7916 232.213 88.4183 230.88 87.4049 229.147C86.4183 227.413 85.9249 225.387 85.9249 223.067C85.9249 220.773 86.4316 218.76 87.4449 217.027C88.4583 215.267 89.8449 213.92 91.6049 212.987C93.3649 212.053 95.3383 211.587 97.5249 211.587C99.7116 211.587 101.685 212.053 103.445 212.987C105.205 213.92 106.592 215.267 107.605 217.027C108.618 218.76 109.125 220.773 109.125 223.067C109.125 225.36 108.605 227.387 107.565 229.147C106.552 230.88 105.152 232.213 103.365 233.147C101.605 234.08 99.6316 234.547 97.4449 234.547ZM97.4449 228.627C98.7516 228.627 99.8583 228.147 100.765 227.187C101.698 226.227 102.165 224.853 102.165 223.067C102.165 221.28 101.712 219.907 100.805 218.947C99.9249 217.987 98.8316 217.507 97.5249 217.507C96.1916 217.507 95.0849 217.987 94.2049 218.947C93.3249 219.88 92.8849 221.253 92.8849 223.067C92.8849 224.853 93.3116 226.227 94.1649 227.187C95.0449 228.147 96.1383 228.627 97.4449 228.627ZM122.914 234.547C120.727 234.547 118.754 234.08 116.994 233.147C115.26 232.213 113.887 230.88 112.874 229.147C111.887 227.413 111.394 225.387 111.394 223.067C111.394 220.773 111.9 218.76 112.914 217.027C113.927 215.267 115.314 213.92 117.074 212.987C118.834 212.053 120.807 211.587 122.994 211.587C125.18 211.587 127.154 212.053 128.914 212.987C130.674 213.92 132.06 215.267 133.074 217.027C134.087 218.76 134.594 220.773 134.594 223.067C134.594 225.36 134.074 227.387 133.034 229.147C132.02 230.88 130.62 232.213 128.834 233.147C127.074 234.08 125.1 234.547 122.914 234.547ZM122.914 228.627C124.22 228.627 125.327 228.147 126.234 227.187C127.167 226.227 127.634 224.853 127.634 223.067C127.634 221.28 127.18 219.907 126.274 218.947C125.394 217.987 124.3 217.507 122.994 217.507C121.66 217.507 120.554 217.987 119.674 218.947C118.794 219.88 118.354 221.253 118.354 223.067C118.354 224.853 118.78 226.227 119.634 227.187C120.514 228.147 121.607 228.627 122.914 228.627ZM136.862 223.027C136.862 220.733 137.289 218.72 138.142 216.987C139.022 215.253 140.209 213.92 141.702 212.987C143.196 212.053 144.862 211.587 146.702 211.587C148.169 211.587 149.502 211.893 150.702 212.507C151.929 213.12 152.889 213.947 153.582 214.987V204.627H160.422V234.227H153.582V231.027C152.942 232.093 152.022 232.947 150.822 233.587C149.649 234.227 148.276 234.547 146.702 234.547C144.862 234.547 143.196 234.08 141.702 233.147C140.209 232.187 139.022 230.84 138.142 229.107C137.289 227.347 136.862 225.32 136.862 223.027ZM153.582 223.067C153.582 221.36 153.102 220.013 152.142 219.027C151.209 218.04 150.062 217.547 148.702 217.547C147.342 217.547 146.182 218.04 145.222 219.027C144.289 219.987 143.822 221.32 143.822 223.027C143.822 224.733 144.289 226.093 145.222 227.107C146.182 228.093 147.342 228.587 148.702 228.587C150.062 228.587 151.209 228.093 152.142 227.107C153.102 226.12 153.582 224.773 153.582 223.067ZM185.047 217.587H181.367V234.227H174.527V217.587H172.047V211.907H174.527V211.267C174.527 208.52 175.314 206.44 176.887 205.027C178.461 203.587 180.767 202.867 183.807 202.867C184.314 202.867 184.687 202.88 184.927 202.907V208.707C183.621 208.627 182.701 208.813 182.167 209.267C181.634 209.72 181.367 210.533 181.367 211.707V211.907H185.047V217.587ZM198.421 234.547C196.235 234.547 194.261 234.08 192.501 233.147C190.768 232.213 189.395 230.88 188.381 229.147C187.395 227.413 186.901 225.387 186.901 223.067C186.901 220.773 187.408 218.76 188.421 217.027C189.435 215.267 190.821 213.92 192.581 212.987C194.341 212.053 196.315 211.587 198.501 211.587C200.688 211.587 202.661 212.053 204.421 212.987C206.181 213.92 207.568 215.267 208.581 217.027C209.595 218.76 210.101 220.773 210.101 223.067C210.101 225.36 209.581 227.387 208.541 229.147C207.528 230.88 206.128 232.213 204.341 233.147C202.581 234.08 200.608 234.547 198.421 234.547ZM198.421 228.627C199.728 228.627 200.835 228.147 201.741 227.187C202.675 226.227 203.141 224.853 203.141 223.067C203.141 221.28 202.688 219.907 201.781 218.947C200.901 217.987 199.808 217.507 198.501 217.507C197.168 217.507 196.061 217.987 195.181 218.947C194.301 219.88 193.861 221.253 193.861 223.067C193.861 224.853 194.288 226.227 195.141 227.187C196.021 228.147 197.115 228.627 198.421 228.627ZM220.57 215.627C221.37 214.4 222.37 213.44 223.57 212.747C224.77 212.027 226.104 211.667 227.57 211.667V218.907H225.69C223.984 218.907 222.704 219.28 221.85 220.027C220.997 220.747 220.57 222.027 220.57 223.867V234.227H213.73V211.907H220.57V215.627ZM259.516 206.147V211.627H252.076V234.227H245.236V211.627H237.796V206.147H259.516ZM276.669 211.667C279.229 211.667 281.282 212.52 282.829 214.227C284.376 215.907 285.149 218.227 285.149 221.187V234.227H278.349V222.107C278.349 220.613 277.962 219.453 277.189 218.627C276.416 217.8 275.376 217.387 274.069 217.387C272.762 217.387 271.722 217.8 270.949 218.627C270.176 219.453 269.789 220.613 269.789 222.107V234.227H262.949V204.627H269.789V214.907C270.482 213.92 271.429 213.133 272.629 212.547C273.829 211.96 275.176 211.667 276.669 211.667ZM300.062 234.547C297.875 234.547 295.902 234.08 294.142 233.147C292.409 232.213 291.035 230.88 290.022 229.147C289.035 227.413 288.542 225.387 288.542 223.067C288.542 220.773 289.049 218.76 290.062 217.027C291.075 215.267 292.462 213.92 294.222 212.987C295.982 212.053 297.955 211.587 300.142 211.587C302.329 211.587 304.302 212.053 306.062 212.987C307.822 213.92 309.209 215.267 310.222 217.027C311.235 218.76 311.742 220.773 311.742 223.067C311.742 225.36 311.222 227.387 310.182 229.147C309.169 230.88 307.769 232.213 305.982 233.147C304.222 234.08 302.249 234.547 300.062 234.547ZM300.062 228.627C301.369 228.627 302.475 228.147 303.382 227.187C304.315 226.227 304.782 224.853 304.782 223.067C304.782 221.28 304.329 219.907 303.422 218.947C302.542 217.987 301.449 217.507 300.142 217.507C298.809 217.507 297.702 217.987 296.822 218.947C295.942 219.88 295.502 221.253 295.502 223.067C295.502 224.853 295.929 226.227 296.782 227.187C297.662 228.147 298.755 228.627 300.062 228.627ZM337.411 211.907V234.227H330.571V231.187C329.878 232.173 328.931 232.973 327.731 233.587C326.558 234.173 325.251 234.467 323.811 234.467C322.104 234.467 320.598 234.093 319.291 233.347C317.984 232.573 316.971 231.467 316.251 230.027C315.531 228.587 315.171 226.893 315.171 224.947V211.907H321.971V224.027C321.971 225.52 322.358 226.68 323.131 227.507C323.904 228.333 324.944 228.747 326.251 228.747C327.584 228.747 328.638 228.333 329.411 227.507C330.184 226.68 330.571 225.52 330.571 224.027V211.907H337.411ZM350.804 211.587C352.377 211.587 353.751 211.907 354.924 212.547C356.124 213.187 357.044 214.027 357.684 215.067V211.907H364.524V234.187C364.524 236.24 364.111 238.093 363.284 239.747C362.484 241.427 361.244 242.76 359.564 243.747C357.911 244.733 355.844 245.227 353.364 245.227C350.057 245.227 347.377 244.44 345.324 242.867C343.271 241.32 342.097 239.213 341.804 236.547H348.564C348.777 237.4 349.284 238.067 350.084 238.547C350.884 239.053 351.871 239.307 353.044 239.307C354.457 239.307 355.577 238.893 356.404 238.067C357.257 237.267 357.684 235.973 357.684 234.187V231.027C357.017 232.067 356.097 232.92 354.924 233.587C353.751 234.227 352.377 234.547 350.804 234.547C348.964 234.547 347.297 234.08 345.804 233.147C344.311 232.187 343.124 230.84 342.244 229.107C341.391 227.347 340.964 225.32 340.964 223.027C340.964 220.733 341.391 218.72 342.244 216.987C343.124 215.253 344.311 213.92 345.804 212.987C347.297 212.053 348.964 211.587 350.804 211.587ZM357.684 223.067C357.684 221.36 357.204 220.013 356.244 219.027C355.311 218.04 354.164 217.547 352.804 217.547C351.444 217.547 350.284 218.04 349.324 219.027C348.391 219.987 347.924 221.32 347.924 223.027C347.924 224.733 348.391 226.093 349.324 227.107C350.284 228.093 351.444 228.587 352.804 228.587C354.164 228.587 355.311 228.093 356.244 227.107C357.204 226.12 357.684 224.773 357.684 223.067ZM383.192 211.667C385.752 211.667 387.806 212.52 389.352 214.227C390.899 215.907 391.672 218.227 391.672 221.187V234.227H384.872V222.107C384.872 220.613 384.486 219.453 383.712 218.627C382.939 217.8 381.899 217.387 380.592 217.387C379.286 217.387 378.246 217.8 377.472 218.627C376.699 219.453 376.312 220.613 376.312 222.107V234.227H369.472V204.627H376.312V214.907C377.006 213.92 377.952 213.133 379.152 212.547C380.352 211.96 381.699 211.667 383.192 211.667ZM408.866 228.427V234.227H405.386C402.906 234.227 400.972 233.627 399.586 232.427C398.199 231.2 397.506 229.213 397.506 226.467V217.587H394.786V211.907H397.506V206.467H404.346V211.907H408.826V217.587H404.346V226.547C404.346 227.213 404.506 227.693 404.826 227.987C405.146 228.28 405.679 228.427 406.426 228.427H408.866Z" fill="black"/>
<defs>
<filter id="filter0_df_18_6" x="-105" y="0" width="776" height="396" filterUnits="userSpaceOnUse" color-interpolation-filters="sRGB">
<feFlood flood-opacity="0" result="BackgroundImageFix"/>
<feColorMatrix in="SourceAlpha" type="matrix" values="0 0 0 0 0 0 0 0 0 0 0 0 0 0 0 0 0 0 127 0" result="hardAlpha"/>
<feOffset dy="4"/>
<feGaussianBlur stdDeviation="2"/>
<feComposite in2="hardAlpha" operator="out"/>
<feColorMatrix type="matrix" values="0 0 0 0 0 0 0 0 0 0 0 0 0 0 0 0 0 0 0.25 0"/>
<feBlend mode="normal" in2="BackgroundImageFix" result="effect1_dropShadow_18_6"/>
<feBlend mode="normal" in="SourceGraphic" in2="effect1_dropShadow_18_6" result="shape"/>
<feGaussianBlur stdDeviation="78" result="effect2_foregroundBlur_18_6"/>
</filter>
<linearGradient id="paint0_linear_18_6" x1="51" y1="194.988" x2="515.012" y2="199.877" gradientUnits="userSpaceOnUse">
<stop stop-color="#B0DEFB"/>
<stop offset="0.235" stop-color="#44B0FF"/>
<stop offset="0.47" stop-color="#E9FF0C"/>
<stop offset="0.74" stop-color="#FFED0C"/>
<stop offset="1" stop-color="#666666"/>
</linearGradient>
</defs>
</svg>
