<svg width="84" height="84" viewBox="0 0 84 84" fill="none" xmlns="http://www.w3.org/2000/svg">
<circle cx="41.9699" cy="41.9699" r="41.9699" fill="#EBEBEB"/>
<path d="M29.7833 13C20.5283 13 13 20.5353 13 29.7926V53.7755C13 63.0304 20.5353 70.5587 29.7926 70.5587H53.7755C63.0304 70.5587 70.5587 63.0234 70.5587 53.7661V29.7833C70.5587 20.5283 63.0234 13 53.7661 13H29.7833ZM58.5673 22.5931C59.8912 22.5931 60.9656 23.6676 60.9656 24.9914C60.9656 26.3153 59.8912 27.3897 58.5673 27.3897C57.2435 27.3897 56.169 26.3153 56.169 24.9914C56.169 23.6676 57.2435 22.5931 58.5673 22.5931ZM41.7794 27.3897C49.7153 27.3897 56.169 33.8435 56.169 41.7794C56.169 49.7153 49.7153 56.169 41.7794 56.169C33.8435 56.169 27.3897 49.7153 27.3897 41.7794C27.3897 33.8435 33.8435 27.3897 41.7794 27.3897ZM41.7794 32.1862C39.2351 32.1862 36.7951 33.1969 34.996 34.996C33.1969 36.7951 32.1862 39.2351 32.1862 41.7794C32.1862 44.3236 33.1969 46.7637 34.996 48.5627C36.7951 50.3618 39.2351 51.3725 41.7794 51.3725C44.3236 51.3725 46.7637 50.3618 48.5627 48.5627C50.3618 46.7637 51.3725 44.3236 51.3725 41.7794C51.3725 39.2351 50.3618 36.7951 48.5627 34.996C46.7637 33.1969 44.3236 32.1862 41.7794 32.1862Z" fill="black"/>
</svg>
