<svg width="252" height="62" viewBox="0 0 252 62" fill="none" xmlns="http://www.w3.org/2000/svg">
<path d="M24.5853 49.1675H49.6634C51.2015 49.1675 52.4493 50.1933 52.4493 51.4595V51.5264C52.4493 52.7945 51.202 53.8204 49.6634 53.8204H24.5853C23.0469 53.8204 21.7988 52.7946 21.7988 51.5264V51.4595C21.7989 50.1933 23.0459 49.1675 24.5853 49.1675Z" fill="#FFC40C"/>
<path d="M53.2934 46.0797C53.2113 46.1075 53.1388 46.1446 53.0616 46.1975C52.9269 46.2894 52.7764 46.4362 52.6025 46.6413C52.4726 46.7927 52.3307 46.9746 52.1654 47.1695C51.9169 47.4611 51.6125 47.7924 51.1843 48.0618C50.971 48.1954 50.7265 48.3096 50.4597 48.3876C50.1925 48.4656 49.9019 48.5064 49.5986 48.5064C49.2469 48.5074 48.9132 48.4517 48.6108 48.3477C48.3462 48.2566 48.109 48.1314 47.9023 47.9892C47.5403 47.7395 47.2721 47.4499 47.0488 47.1899C46.8822 46.9931 46.7394 46.8111 46.6073 46.6571C46.4106 46.4241 46.2453 46.2634 46.0961 46.1715C46.0197 46.1251 45.9487 46.0907 45.8634 46.0656C45.7785 46.0424 45.6796 46.0247 45.5458 46.0247C45.3909 46.0247 45.2826 46.0471 45.1883 46.0796C45.1065 46.1074 45.0337 46.1445 44.956 46.1974C44.8212 46.2893 44.6708 46.4361 44.4979 46.6412C44.3676 46.7926 44.2257 46.9744 44.0599 47.1694C43.8114 47.461 43.5073 47.7923 43.0788 48.0616C42.8654 48.1963 42.6219 48.3095 42.3537 48.3875C42.0861 48.4655 41.7963 48.5063 41.4931 48.5063C41.1413 48.5073 40.8067 48.4516 40.5057 48.3475C40.2406 48.2565 40.0034 48.1313 39.7968 47.9891C39.4344 47.7394 39.1671 47.4497 38.9442 47.1898C38.7756 46.993 38.6334 46.811 38.5018 46.6569C38.3054 46.424 38.1392 46.2633 37.9897 46.1714C37.9147 46.125 37.8428 46.0906 37.7574 46.0655C37.6729 46.0423 37.5732 46.0246 37.4403 46.0246C37.2853 46.0246 37.1766 46.047 37.0831 46.0794C37.0008 46.1073 36.9281 46.1444 36.8505 46.1973C36.7157 46.2892 36.5653 46.4359 36.3923 46.6411C36.2612 46.7924 36.1196 46.9743 35.9542 47.1693C35.7058 47.4609 35.4018 47.7922 34.9728 48.0615C34.7594 48.1962 34.5165 48.3094 34.2482 48.3874C33.98 48.4654 33.6908 48.5062 33.3875 48.5062C33.0353 48.5071 32.7016 48.4514 32.3992 48.3474C32.1351 48.2563 31.8974 48.1311 31.6908 47.989C31.3287 47.7393 31.0601 47.4496 30.8377 47.1896C30.6706 46.9929 30.5269 46.8109 30.3966 46.6568C30.2 46.4238 30.0337 46.2631 29.8831 46.1712C29.809 46.1249 29.7363 46.0905 29.6519 46.0654C29.5674 46.0421 29.4677 46.0245 29.3342 46.0245C29.1793 46.0245 29.071 46.0469 28.9767 46.0793C28.8939 46.1072 28.8216 46.1442 28.7444 46.1971C28.6093 46.2891 28.4592 46.4358 28.2849 46.641C28.1546 46.7923 28.0131 46.9751 27.8469 47.1692C27.5998 47.4608 27.2944 47.7921 26.8662 48.0614C26.653 48.196 26.409 48.3093 26.1408 48.3872C25.8735 48.4652 25.5834 48.507 25.2806 48.507C24.9284 48.507 24.5937 48.4513 24.2928 48.3473C24.0287 48.2562 23.7905 48.131 23.584 47.9889C23.2215 47.7392 22.9533 47.4495 22.7305 47.1895C22.5643 46.9927 22.4205 46.8107 22.2894 46.6567C22.0927 46.4237 21.9264 46.263 21.7768 46.1711C21.7018 46.1247 21.6298 46.0903 21.5446 46.0662C21.4592 46.042 21.3604 46.0243 21.2266 46.0243C20.6749 46.0243 20.2266 45.5612 20.2266 44.9902C20.2266 44.4194 20.6749 43.9561 21.2266 43.9561C21.5792 43.9561 21.9128 44.0118 22.2153 44.1157C22.4799 44.2058 22.7179 44.3321 22.9237 44.4731C23.2857 44.7228 23.5539 45.0115 23.7772 45.2733C23.9438 45.4693 24.0876 45.6521 24.2187 45.8053C24.4147 46.0383 24.5817 46.1988 24.7308 46.2917C24.8072 46.3381 24.8783 46.3716 24.9626 46.3966C25.048 46.4217 25.1478 46.4375 25.2807 46.4375C25.4353 46.4375 25.5444 46.4161 25.6387 46.3846C25.7204 46.3568 25.7927 46.3178 25.871 46.265C26.0057 46.174 26.1567 46.0254 26.3295 45.8212C26.4598 45.6698 26.6022 45.4889 26.7666 45.292C27.0154 45.0023 27.3192 44.6699 27.7482 44.4017C27.9624 44.267 28.2055 44.1538 28.4737 44.074C28.7418 43.9969 29.0312 43.9561 29.3343 43.9561C29.6866 43.9561 30.0202 44.0108 30.3227 44.1157C30.5868 44.2058 30.8249 44.3321 31.0311 44.4731C31.3931 44.7228 31.6613 45.0115 31.8841 45.2733C32.0521 45.4693 32.195 45.6521 32.3261 45.8053C32.5229 46.0383 32.6882 46.1988 32.8387 46.2917C32.9142 46.3381 32.9856 46.3716 33.07 46.3966C33.1545 46.4217 33.2542 46.4375 33.3876 46.4375C33.5426 46.4375 33.6517 46.4161 33.7451 46.3846C33.8273 46.3568 33.9001 46.3178 33.9779 46.265C34.1122 46.174 34.2626 46.0254 34.4361 45.8212C34.5664 45.6698 34.7078 45.4889 34.8732 45.2939C35.1221 45.0023 35.4256 44.67 35.8546 44.4017C36.069 44.267 36.3114 44.1538 36.5801 44.074C36.8473 43.9969 37.1381 43.9552 37.4404 43.9561C37.7921 43.9551 38.1268 44.0108 38.4287 44.1157C38.6928 44.2058 38.9309 44.3311 39.1375 44.4731C39.4996 44.7228 39.7678 45.0115 39.9906 45.2733C40.1578 45.4693 40.3001 45.6521 40.4317 45.8053C40.628 46.0383 40.7948 46.1988 40.9443 46.2917C41.0193 46.3381 41.0912 46.3716 41.1756 46.3966C41.2619 46.4207 41.3607 46.4375 41.4932 46.4375C41.6481 46.4375 41.7574 46.4161 41.8517 46.3846C41.9335 46.3568 42.0063 46.3178 42.083 46.265C42.2186 46.174 42.3683 46.0254 42.5425 45.8212C42.6728 45.6688 42.8138 45.4879 42.9801 45.2939C43.2276 45.0023 43.5322 44.67 43.9607 44.4017C44.174 44.267 44.4189 44.1538 44.6858 44.074C44.9531 43.9969 45.2428 43.9552 45.5459 43.9561C45.8985 43.9551 46.2318 44.0108 46.5351 44.1157C46.7992 44.2058 47.0355 44.3311 47.2422 44.4731C47.6047 44.7228 47.8729 45.0115 48.0957 45.2733C48.2633 45.4683 48.4056 45.6521 48.5368 45.8053C48.7335 46.0383 48.9006 46.1988 49.0489 46.2917C49.1253 46.3381 49.1971 46.3716 49.2816 46.3966C49.3661 46.4207 49.4658 46.4365 49.5987 46.4375C49.7538 46.4365 49.8624 46.4161 49.9567 46.3846C50.0384 46.3568 50.1107 46.3178 50.189 46.265C50.3228 46.174 50.4742 46.0264 50.6467 45.8212C50.7774 45.6688 50.919 45.4879 51.0842 45.2929C51.3326 45.0023 51.6372 44.671 52.0653 44.4007C52.2786 44.267 52.5226 44.1538 52.7902 44.074C53.0581 43.9969 53.3478 43.9552 53.6514 43.9561C54.204 43.9561 54.6519 44.4194 54.6519 44.9902C54.6519 45.5612 54.204 46.0243 53.6514 46.0243C53.496 46.0247 53.3874 46.0471 53.2934 46.0797Z" fill="#FFC40C"/>
<path d="M14.1251 15.1451L12.349 6.7L5.91729 2.84074L7.51291 0L15.1575 4.58606L17.3789 15.1451H37.3691L37.2475 16.7873L36.3146 29.3135C36.6658 29.2958 37.0198 29.2866 37.376 29.2866C45.7245 29.2866 52.5973 34.22 53.4872 39.7204C53.5191 39.9192 53.5438 39.9711 53.5622 40.0268C53.5779 40.0806 53.5869 40.1346 53.5869 40.3368C53.5869 41.5149 52.9517 42.136 51.8499 42.136H22.9023C21.8022 42.136 21.1657 41.5149 21.1657 40.3368C21.1657 39.9349 21.2003 40.1159 21.2663 39.7204C21.7105 36.9651 23.6588 34.3518 26.5399 32.4282C27.4756 31.8035 28.5088 31.2556 29.621 30.7952C30.7791 30.3181 32.0216 29.9392 33.3288 29.6813L34.1823 18.1939H8.53596L11.3602 56.2006H21.4933C21.8473 55.7523 22.3674 55.4858 23.0956 55.4858H31.4104H34.3711H51.6503C53.3073 55.4858 53.8864 56.8764 53.8864 58.5883V58.8993C53.8864 60.6112 52.5423 62 50.8847 62H23.8675C22.3258 62 21.0528 60.7987 20.8844 59.2502H8.62607L5.34822 15.1451H14.1251ZM46.2468 35.6534C46.6871 35.6534 47.0455 35.283 47.0455 34.8263C47.0455 34.3686 46.6872 33.9973 46.2468 33.9973C45.8035 33.9973 45.445 34.3686 45.445 34.8263C45.445 35.283 45.8033 35.6534 46.2468 35.6534ZM43.043 33.171C43.486 33.171 43.8444 32.8005 43.8444 32.3437C43.8444 31.886 43.486 31.5146 43.043 31.5146C42.6006 31.5146 42.2417 31.8859 42.2417 32.3437C42.2417 32.8005 42.6006 33.171 43.043 33.171ZM40.2419 35.6534C40.6844 35.6534 41.0432 35.283 41.0432 34.8263C41.0432 34.3686 40.6844 33.9973 40.2419 33.9973C39.7985 33.9973 39.4401 34.3686 39.4401 34.8263C39.4399 35.283 39.7984 35.6534 40.2419 35.6534ZM37.8395 32.1368C38.2819 32.1368 38.6413 31.7663 38.6413 31.3095C38.6413 30.8538 38.2819 30.4833 37.8395 30.4833C37.397 30.4833 37.0377 30.8538 37.0377 31.3095C37.0377 31.7663 37.397 32.1368 37.8395 32.1368ZM28.2338 34.2043C27.7903 34.2043 27.432 34.5747 27.432 35.0323C27.432 35.4891 27.7905 35.8605 28.2338 35.8605C28.6739 35.8605 29.0324 35.4891 29.0324 35.0323C29.0324 34.5747 28.6739 34.2043 28.2338 34.2043ZM32.2365 31.5054C31.7932 31.5054 31.4347 31.8759 31.4347 32.3317C31.4347 32.7912 31.7931 33.1616 32.2365 33.1616C32.6786 33.1616 33.0353 32.7912 33.0353 32.3317C33.0353 31.876 32.6786 31.5054 32.2365 31.5054ZM34.0365 35.0323C34.0365 35.4891 34.3954 35.8605 34.8383 35.8605C35.2785 35.8605 35.637 35.4891 35.637 35.0323C35.637 34.5746 35.2786 34.2043 34.8383 34.2043C34.3954 34.2043 34.0365 34.5747 34.0365 35.0323Z" fill="#FFC40C"/>
<path d="M68.352 61V57L79.2 41.48H68.992V37.16H85.472V41.16L74.656 56.68H85.792V61H68.352ZM96.3323 61.384C94.4763 61.384 92.8656 60.9787 91.5003 60.168C90.1349 59.336 89.0789 58.2267 88.3323 56.84C87.5856 55.4533 87.2122 53.9173 87.2122 52.232C87.2122 50.4827 87.5963 48.9253 88.3643 47.56C89.1536 46.1947 90.2096 45.1173 91.5323 44.328C92.8549 43.5387 94.3483 43.144 96.0123 43.144C97.3989 43.144 98.6256 43.368 99.6923 43.816C100.759 44.2427 101.655 44.8507 102.38 45.64C103.127 46.4293 103.692 47.3467 104.076 48.392C104.46 49.416 104.652 50.536 104.652 51.752C104.652 52.0933 104.631 52.4347 104.588 52.776C104.567 53.096 104.514 53.3733 104.428 53.608H91.3403V50.088H101.708L99.4363 51.752C99.6496 50.8347 99.6389 50.024 99.4043 49.32C99.1696 48.5947 98.7536 48.0293 98.1563 47.624C97.5803 47.1973 96.8656 46.984 96.0123 46.984C95.1803 46.984 94.4656 47.1867 93.8683 47.592C93.2709 47.9973 92.8229 48.5947 92.5243 49.384C92.2256 50.1733 92.1083 51.1333 92.1723 52.264C92.0869 53.2453 92.2043 54.1093 92.5243 54.856C92.8443 55.6027 93.3349 56.1893 93.9963 56.616C94.6576 57.0213 95.4576 57.224 96.3963 57.224C97.2496 57.224 97.9749 57.0533 98.5723 56.712C99.1909 56.3707 99.6709 55.9013 100.012 55.304L103.852 57.128C103.511 57.9813 102.967 58.728 102.22 59.368C101.495 60.008 100.631 60.5093 99.6283 60.872C98.6256 61.2133 97.5269 61.384 96.3323 61.384ZM115.895 61.384C114.039 61.384 112.428 60.9787 111.063 60.168C109.697 59.336 108.641 58.2267 107.895 56.84C107.148 55.4533 106.775 53.9173 106.775 52.232C106.775 50.4827 107.159 48.9253 107.927 47.56C108.716 46.1947 109.772 45.1173 111.095 44.328C112.417 43.5387 113.911 43.144 115.575 43.144C116.961 43.144 118.188 43.368 119.255 43.816C120.321 44.2427 121.217 44.8507 121.943 45.64C122.689 46.4293 123.255 47.3467 123.639 48.392C124.023 49.416 124.215 50.536 124.215 51.752C124.215 52.0933 124.193 52.4347 124.151 52.776C124.129 53.096 124.076 53.3733 123.991 53.608H110.903V50.088H121.271L118.999 51.752C119.212 50.8347 119.201 50.024 118.967 49.32C118.732 48.5947 118.316 48.0293 117.719 47.624C117.143 47.1973 116.428 46.984 115.575 46.984C114.743 46.984 114.028 47.1867 113.431 47.592C112.833 47.9973 112.385 48.5947 112.087 49.384C111.788 50.1733 111.671 51.1333 111.735 52.264C111.649 53.2453 111.767 54.1093 112.087 54.856C112.407 55.6027 112.897 56.1893 113.559 56.616C114.22 57.0213 115.02 57.224 115.959 57.224C116.812 57.224 117.537 57.0533 118.135 56.712C118.753 56.3707 119.233 55.9013 119.575 55.304L123.415 57.128C123.073 57.9813 122.529 58.728 121.783 59.368C121.057 60.008 120.193 60.5093 119.191 60.872C118.188 61.2133 117.089 61.384 115.895 61.384ZM127.041 61V36.776H131.841V52.296L130.049 51.72L137.761 43.528H143.681L137.345 50.568L143.649 61H138.209L132.929 52.136L135.713 51.432L130.369 57.256L131.841 54.472V61H127.041ZM145.791 61V43.528H150.591V61H145.791ZM145.791 41.96V37.16H150.591V41.96H145.791ZM162.52 61.192C160.408 61.192 158.765 60.6267 157.592 59.496C156.44 58.344 155.864 56.744 155.864 54.696V47.688H152.92V43.528H153.08C153.976 43.528 154.658 43.304 155.128 42.856C155.618 42.408 155.864 41.736 155.864 40.84V39.56H160.664V43.528H164.76V47.688H160.664V54.376C160.664 54.9733 160.77 55.4747 160.984 55.88C161.197 56.264 161.528 56.552 161.976 56.744C162.424 56.936 162.978 57.032 163.64 57.032C163.789 57.032 163.96 57.0213 164.152 57C164.344 56.9787 164.546 56.9573 164.76 56.936V61C164.44 61.0427 164.077 61.0853 163.672 61.128C163.266 61.1707 162.882 61.192 162.52 61.192ZM176.149 61.384C174.399 61.384 172.821 60.9893 171.413 60.2C170.026 59.3893 168.917 58.2907 168.085 56.904C167.274 55.5173 166.868 53.96 166.868 52.232C166.868 50.504 167.274 48.9573 168.085 47.592C168.895 46.2053 170.005 45.1173 171.413 44.328C172.821 43.5387 174.399 43.144 176.149 43.144C177.45 43.144 178.655 43.368 179.765 43.816C180.874 44.264 181.823 44.8933 182.613 45.704C183.402 46.4933 183.967 47.432 184.309 48.52L180.149 50.312C179.85 49.4373 179.338 48.744 178.613 48.232C177.909 47.72 177.087 47.464 176.149 47.464C175.317 47.464 174.57 47.6667 173.909 48.072C173.269 48.4773 172.757 49.0427 172.373 49.768C172.01 50.4933 171.829 51.3253 171.829 52.264C171.829 53.2027 172.01 54.0347 172.373 54.76C172.757 55.4853 173.269 56.0507 173.909 56.456C174.57 56.8613 175.317 57.064 176.149 57.064C177.109 57.064 177.941 56.808 178.645 56.296C179.349 55.784 179.85 55.0907 180.149 54.216L184.309 56.04C183.989 57.064 183.434 57.9813 182.645 58.792C181.855 59.6027 180.906 60.2427 179.797 60.712C178.687 61.16 177.471 61.384 176.149 61.384ZM187.135 61V36.776H191.935V46.984L191.359 46.216C191.764 45.1707 192.415 44.4027 193.311 43.912C194.228 43.4 195.295 43.144 196.511 43.144C197.834 43.144 198.986 43.4213 199.967 43.976C200.97 44.5307 201.748 45.3093 202.303 46.312C202.858 47.2933 203.135 48.4453 203.135 49.768V61H198.335V50.792C198.335 50.1093 198.196 49.5227 197.919 49.032C197.663 48.5413 197.29 48.1573 196.799 47.88C196.33 47.6027 195.775 47.464 195.135 47.464C194.516 47.464 193.962 47.6027 193.471 47.88C192.98 48.1573 192.596 48.5413 192.319 49.032C192.063 49.5227 191.935 50.1093 191.935 50.792V61H187.135ZM214.707 61.384C212.851 61.384 211.241 60.9787 209.875 60.168C208.51 59.336 207.454 58.2267 206.707 56.84C205.961 55.4533 205.587 53.9173 205.587 52.232C205.587 50.4827 205.971 48.9253 206.739 47.56C207.529 46.1947 208.585 45.1173 209.907 44.328C211.23 43.5387 212.723 43.144 214.387 43.144C215.774 43.144 217.001 43.368 218.067 43.816C219.134 44.2427 220.03 44.8507 220.755 45.64C221.502 46.4293 222.067 47.3467 222.451 48.392C222.835 49.416 223.027 50.536 223.027 51.752C223.027 52.0933 223.006 52.4347 222.963 52.776C222.942 53.096 222.889 53.3733 222.803 53.608H209.715V50.088H220.083L217.811 51.752C218.025 50.8347 218.014 50.024 217.779 49.32C217.545 48.5947 217.129 48.0293 216.531 47.624C215.955 47.1973 215.241 46.984 214.387 46.984C213.555 46.984 212.841 47.1867 212.243 47.592C211.646 47.9973 211.198 48.5947 210.899 49.384C210.601 50.1733 210.483 51.1333 210.547 52.264C210.462 53.2453 210.579 54.1093 210.899 54.856C211.219 55.6027 211.71 56.1893 212.371 56.616C213.033 57.0213 213.833 57.224 214.771 57.224C215.625 57.224 216.35 57.0533 216.947 56.712C217.566 56.3707 218.046 55.9013 218.387 55.304L222.227 57.128C221.886 57.9813 221.342 58.728 220.595 59.368C219.87 60.008 219.006 60.5093 218.003 60.872C217.001 61.2133 215.902 61.384 214.707 61.384ZM225.854 61V43.528H230.334V46.984L230.078 46.216C230.483 45.1707 231.134 44.4027 232.03 43.912C232.947 43.4 234.014 43.144 235.23 43.144C236.552 43.144 237.704 43.4213 238.686 43.976C239.688 44.5307 240.467 45.3093 241.022 46.312C241.576 47.2933 241.854 48.4453 241.854 49.768V61H237.054V50.792C237.054 50.1093 236.915 49.5227 236.638 49.032C236.382 48.5413 236.008 48.1573 235.518 47.88C235.048 47.6027 234.494 47.464 233.854 47.464C233.235 47.464 232.68 47.6027 232.19 47.88C231.699 48.1573 231.315 48.5413 231.038 49.032C230.782 49.5227 230.654 50.1093 230.654 50.792V61H225.854Z" fill="#D1A61F"/>
</svg>
