<svg width="671" height="396" viewBox="0 0 671 396" fill="none" xmlns="http://www.w3.org/2000/svg">
<g filter="url(#filter0_df_18_5)">
<path d="M232.162 186.506C240.545 179.041 248.928 179.041 252.653 187.128C255.448 184.64 258.242 181.529 259.639 182.151C268.022 184.64 276.405 185.262 285.719 182.773C287.582 182.773 288.979 183.396 290.376 184.64C293.17 186.506 295.499 188.994 300.156 182.151C302.019 179.663 306.21 179.041 308.073 180.285C312.73 182.773 317.853 182.151 323.907 179.663C324.373 180.285 325.304 180.285 326.236 179.663C330.893 179.041 334.153 184.64 340.207 179.041C344.864 173.443 349.056 177.175 354.178 170.333C353.713 174.065 353.713 175.931 353.713 178.419C362.561 178.419 371.41 178.419 380.258 178.419C384.915 178.419 390.038 179.041 395.161 177.797C396.558 177.175 398.421 174.065 400.284 171.577C419.378 174.687 439.869 172.199 462.224 162.247C470.606 159.136 478.989 160.381 487.372 159.758C491.563 159.136 495.289 159.136 499.481 157.27C506.932 154.16 510.658 156.648 512.055 165.979C512.52 171.577 513.452 175.931 514.383 180.907C515.78 185.884 514.849 191.482 511.123 197.702C508.795 200.812 506.932 204.544 504.603 207.655C501.809 212.631 498.549 213.875 495.289 213.253C489.701 212.009 483.181 212.009 477.126 212.009C476.195 210.143 475.263 208.899 474.332 207.033C473.401 208.277 472.935 208.899 472.469 209.521C473.866 210.765 475.729 210.765 477.126 212.009C476.195 213.253 475.729 215.119 474.332 216.363C469.209 220.095 460.826 220.095 455.704 216.363C458.498 215.119 460.826 213.253 464.552 211.387C463.155 210.143 462.689 209.521 461.758 210.143C458.498 210.765 454.306 213.875 451.512 212.009C447.321 210.765 444.992 218.851 441.732 220.095C438.007 220.717 442.198 210.765 436.609 212.631C430.555 215.119 424.967 214.497 419.378 215.119C416.584 214.497 413.324 215.741 412.858 210.143C412.392 207.033 408.201 206.411 405.407 207.033C397.49 208.899 389.573 212.631 381.655 215.119C381.19 215.741 380.258 215.741 379.793 215.741C367.684 212.009 353.247 218.229 339.276 220.095C333.221 220.717 327.167 218.851 321.113 218.229C315.99 217.607 311.333 215.741 304.813 221.339C303.416 223.205 301.553 222.583 299.69 222.583C290.842 222.583 281.993 223.205 273.145 223.205C264.296 223.827 255.447 223.827 246.599 223.827C244.736 224.449 242.408 226.315 239.148 228.181C235.888 224.449 230.765 224.449 224.245 228.804C221.916 230.048 219.588 230.67 217.259 230.67C209.342 230.67 201.891 229.426 193.974 228.804C186.056 228.181 178.139 228.181 170.222 228.181C152.991 227.559 135.76 226.315 118.528 226.315C112.94 226.315 106.42 228.181 100.365 230.67C98.5026 231.292 96.6397 235.024 92.9141 240C79.8741 237.512 65.4371 235.646 51 233.158C51.4657 226.937 52.3971 221.339 52.3971 216.985C51.9314 205.789 56.5885 196.458 64.5056 187.75C68.697 182.774 71.957 180.907 75.6827 180.285C85.4627 179.663 95.2426 179.663 105.023 177.797C108.283 177.797 112.474 175.931 115.734 172.821C119.46 169.711 122.254 168.467 125.048 168.467C136.225 169.711 147.868 169.711 158.579 171.577C168.825 172.821 177.674 179.041 188.385 178.419C203.753 179.041 216.328 187.128 232.162 186.506C234.49 190.238 238.216 190.86 242.408 188.994C239.613 186.506 236.819 183.396 232.162 186.506ZM217.725 196.458C218.191 195.836 218.656 196.458 219.588 196.458C219.588 195.836 220.053 194.592 220.053 193.97C219.588 193.97 219.122 193.348 218.191 193.348C218.191 193.97 217.725 195.214 217.725 196.458ZM293.636 233.158C300.622 223.205 303.416 228.804 308.073 231.292C302.019 235.646 298.293 233.78 293.636 233.158ZM348.124 228.804C344.398 229.426 341.138 230.048 337.413 230.048C337.413 228.804 337.413 228.181 337.878 227.559C342.07 224.449 345.796 221.961 349.056 225.071C348.59 226.937 348.59 227.559 348.124 228.804ZM387.71 217.607C389.573 216.985 391.901 216.363 394.23 215.741C390.97 223.205 389.107 220.095 387.71 217.607ZM404.941 213.875C403.544 215.741 402.612 216.985 402.147 216.985C401.681 216.363 401.215 215.741 400.75 214.497C401.215 214.497 402.147 212.631 402.612 213.253C403.544 212.631 404.01 213.253 404.941 213.875ZM372.341 230.67C371.41 231.292 370.478 231.914 370.013 231.914C369.547 231.914 369.547 231.292 369.081 230.67C370.013 230.048 370.944 229.426 371.41 228.804C371.875 228.804 371.875 230.048 372.341 230.67Z" fill="url(#paint0_linear_18_5)"/>
</g>
<defs>
<filter id="filter0_df_18_5" x="-105" y="0" width="776" height="396" filterUnits="userSpaceOnUse" color-interpolation-filters="sRGB">
<feFlood flood-opacity="0" result="BackgroundImageFix"/>
<feColorMatrix in="SourceAlpha" type="matrix" values="0 0 0 0 0 0 0 0 0 0 0 0 0 0 0 0 0 0 127 0" result="hardAlpha"/>
<feOffset dy="4"/>
<feGaussianBlur stdDeviation="2"/>
<feComposite in2="hardAlpha" operator="out"/>
<feColorMatrix type="matrix" values="0 0 0 0 0 0 0 0 0 0 0 0 0 0 0 0 0 0 0.25 0"/>
<feBlend mode="normal" in2="BackgroundImageFix" result="effect1_dropShadow_18_5"/>
<feBlend mode="normal" in="SourceGraphic" in2="effect1_dropShadow_18_5" result="shape"/>
<feGaussianBlur stdDeviation="78" result="effect2_foregroundBlur_18_5"/>
</filter>
<linearGradient id="paint0_linear_18_5" x1="51" y1="194.988" x2="515.012" y2="199.877" gradientUnits="userSpaceOnUse">
<stop stop-color="#B0DEFB"/>
<stop offset="0.235" stop-color="#44B0FF"/>
<stop offset="0.47" stop-color="#E9FF0C"/>
<stop offset="0.74" stop-color="#FFED0C"/>
<stop offset="1" stop-color="#666666"/>
</linearGradient>
</defs>
</svg>
