<svg width="120" height="46" viewBox="0 0 120 46" fill="none" xmlns="http://www.w3.org/2000/svg">
<path d="M79.7504 29.5644C100.038 21.1551 109.418 -3.65968 100.702 -25.861C91.9852 -48.0623 68.4725 -59.2429 48.1847 -50.8336C27.8969 -42.4243 18.5167 -17.6095 27.2333 4.59184C35.9499 26.7931 59.4627 37.9738 79.7504 29.5644Z" fill="black" fill-opacity="0.23"/>
<path d="M25.258 -22.9425C24.9676 -21.7281 24.7302 -20.4964 24.5413 -19.2512C24.5433 -19.2511 24.5448 -19.2498 24.5467 -19.2496C32.2774 -18.0781 72.2157 -11.1669 99.392 9.93377C99.5083 10.0245 99.6352 10.0908 99.764 10.1496C100.308 8.99955 100.805 7.82252 101.247 6.61968C73.4802 -14.6913 33.3204 -21.7139 25.258 -22.9425Z" fill="#0E0D0D" fill-opacity="0.54"/>
<path d="M24.9872 -7.13197C24.8001 -7.16077 24.6166 -7.15082 24.4368 -7.12418C24.5836 -5.85631 24.7805 -4.58813 25.0362 -3.31942C35.1304 -1.72118 66.5887 4.43822 91.5074 21.8901C92.4132 21.015 93.2713 20.0944 94.0868 19.1359C94.0141 19.0635 93.9382 18.9924 93.851 18.9317C67.697 0.528262 34.5305 -5.66949 24.9872 -7.13197Z" fill="#0E0D0D" fill-opacity="0.54"/>
<path d="M32.4145 11.6607C31.9415 11.5838 31.481 11.7029 31.1034 11.9496C31.8967 13.2467 32.742 14.4926 33.6426 15.681C42.2401 17.2028 60.2777 21.1964 78.3921 30.161C78.9084 29.9738 79.4239 29.782 79.9369 29.5693C80.7836 29.2181 81.6036 28.8282 82.4113 28.4214C82.2456 28.058 81.9697 27.7441 81.5888 27.5494C61.0858 17.0925 40.3696 12.9554 32.4145 11.6607Z" fill="#0E0D0D" fill-opacity="0.54"/>
<path d="M31.7239 -37.5907C30.9636 -36.5159 30.2555 -35.4035 29.6 -34.2553C29.7959 -34.138 30.0158 -34.0528 30.2559 -34.0163C37.6214 -32.8917 75.7297 -26.2285 102.69 -5.42476C102.996 -5.18917 103.353 -5.07828 103.713 -5.06177C103.827 -6.44489 103.879 -7.84208 103.866 -9.24619C77.2047 -29.2411 40.8345 -36.1284 31.7239 -37.5907Z" fill="#0E0D0D" fill-opacity="0.54"/>
<path d="M53.3486 29.0525C58.672 -5.50488 82.2952 -38.3603 86.9957 -44.6196C86.0287 -45.394 85.0372 -46.1257 84.0176 -46.8064C77.2489 -37.7871 54.9991 -5.97968 49.6826 28.5365C49.6688 28.6285 49.6686 28.7187 49.6681 28.8081C50.7001 29.2804 51.7457 29.7164 52.8074 30.0977C53.0818 29.82 53.2846 29.4674 53.3486 29.0525Z" fill="#989592"/>
<path d="M95.4028 -27.8823L95.7106 -28.2928C96.3333 -29.1252 96.18 -30.2992 95.3665 -30.9156C94.5524 -31.5308 93.3868 -31.3571 92.7653 -30.5242L92.4588 -30.1152C86.2728 -21.8613 69.8386 0.0611572 63.5002 31.6042C63.4455 31.8762 63.4553 32.1434 63.5129 32.3956C64.7014 32.4663 65.8931 32.4792 67.0883 32.435C67.1019 32.3862 67.1261 32.3426 67.1358 32.2916C73.3034 1.59873 89.3597 -19.82 95.4028 -27.8823Z" fill="#989592"/>
<path d="M102.025 -16.2543C96.3162 -8.48791 85.6285 7.72928 78.2051 29.0754C78.0539 29.5099 78.0768 29.9575 78.2241 30.3525C78.7429 30.1642 79.26 29.9718 79.7747 29.7583C80.6438 29.3979 81.4855 28.9971 82.3141 28.5778C89.0432 9.9172 98.1988 -4.5597 103.81 -12.4227C103.682 -13.9431 103.483 -15.4674 103.2 -16.9927C102.748 -16.9079 102.322 -16.6593 102.025 -16.2543Z" fill="#989592"/>
<path d="M30.5484 8.05564C33.8995 -14.5837 44.6736 -38.0379 52.8808 -51.2445C53.1518 -51.6811 53.2244 -52.1822 53.127 -52.6435C51.5668 -52.241 50.0162 -51.738 48.484 -51.1169C40.3154 -37.4198 31.0025 -16.4288 27.3492 4.72723C28.005 6.36417 28.7458 7.93609 29.5562 9.44751C30.0674 9.1722 30.4563 8.6761 30.5484 8.05564Z" fill="#989592"/>
<path d="M39.6488 21.422C44.785 -11.2999 66.2072 -42.4014 72.3876 -50.61L72.9779 -51.3955C73.1225 -51.5878 73.2208 -51.8002 73.2834 -52.0179C73.2691 -52.0225 73.2535 -52.0256 73.2392 -52.0303C72.0557 -52.3889 70.8584 -52.69 69.6502 -52.9329C69.6104 -52.9414 69.5715 -52.9521 69.5312 -52.9593L69.448 -52.8481C63.2431 -44.6064 42.0895 -13.9423 36.3076 19.0176C37.3023 20.0855 38.3447 21.0913 39.4244 22.0404C39.5287 21.8505 39.6134 21.6476 39.6488 21.422Z" fill="#989592"/>
</svg>
