<svg width="60" height="86" viewBox="0 0 60 86" fill="none" xmlns="http://www.w3.org/2000/svg">
<mask id="path-1-outside-1_8_49" maskUnits="userSpaceOnUse" x="-31.1344" y="-4.90177" width="96.2025" height="95.7042" fill="black">
<rect fill="white" x="-31.1344" y="-4.90177" width="96.2025" height="95.7042"/>
<path d="M-3.56282 68.7813L6.36521 46.8607L-15.5553 36.9327L-8.95425 22.3579L12.9663 32.2859L22.8415 10.482L37.4163 17.083L27.5411 38.887L49.3451 48.7622L42.744 63.337L20.94 53.4618L11.012 75.3824L-3.56282 68.7813Z"/>
</mask>
<path d="M-3.56282 68.7813L-7.20653 67.131L-8.8568 70.7747L-5.21309 72.425L-3.56282 68.7813ZM6.36521 46.8607L10.0089 48.511L11.6592 44.8673L8.01548 43.217L6.36521 46.8607ZM-15.5553 36.9327L-19.199 35.2824L-20.8493 38.9261L-17.2056 40.5764L-15.5553 36.9327ZM-8.95425 22.3579L-7.30398 18.7142L-10.9477 17.0639L-12.598 20.7076L-8.95425 22.3579ZM12.9663 32.2859L11.316 35.9296L14.9597 37.5799L16.61 33.9362L12.9663 32.2859ZM22.8415 10.482L24.4918 6.83825L20.8481 5.18798L19.1978 8.83169L22.8415 10.482ZM37.4163 17.083L41.0601 18.7333L42.7103 15.0896L39.0666 13.4393L37.4163 17.083ZM27.5411 38.887L23.8974 37.2367L22.2471 40.8804L25.8909 42.5307L27.5411 38.887ZM49.3451 48.7622L52.9888 50.4125L54.6391 46.7688L50.9954 45.1185L49.3451 48.7622ZM42.744 63.337L41.0937 66.9808L44.7374 68.631L46.3877 64.9873L42.744 63.337ZM20.94 53.4618L22.5903 49.8181L18.9466 48.1678L17.2963 51.8115L20.94 53.4618ZM11.012 75.3824L9.36174 79.0261L13.0055 80.6763L14.6557 77.0326L11.012 75.3824ZM0.08089 70.4316L10.0089 48.511L2.72151 45.2105L-7.20653 67.131L0.08089 70.4316ZM8.01548 43.217L-13.9051 33.289L-17.2056 40.5764L4.71494 50.5044L8.01548 43.217ZM-11.9116 38.583L-5.31054 24.0081L-12.598 20.7076L-19.199 35.2824L-11.9116 38.583ZM-10.6045 26.0016L11.316 35.9296L14.6166 28.6422L-7.30398 18.7142L-10.6045 26.0016ZM16.61 33.9362L26.4852 12.1322L19.1978 8.83169L9.32259 30.6356L16.61 33.9362ZM21.1912 14.1257L35.7661 20.7268L39.0666 13.4393L24.4918 6.83825L21.1912 14.1257ZM33.7726 15.4328L23.8974 37.2367L31.1848 40.5373L41.0601 18.7333L33.7726 15.4328ZM25.8909 42.5307L47.6948 52.4059L50.9954 45.1185L29.1914 35.2433L25.8909 42.5307ZM45.7014 47.1119L39.1003 61.6868L46.3877 64.9873L52.9888 50.4125L45.7014 47.1119ZM44.3943 59.6933L22.5903 49.8181L19.2898 57.1055L41.0937 66.9808L44.3943 59.6933ZM17.2963 51.8115L7.36831 73.7321L14.6557 77.0326L24.5838 55.1121L17.2963 51.8115ZM12.6623 71.7387L-1.91255 65.1376L-5.21309 72.425L9.36174 79.0261L12.6623 71.7387Z" fill="#FFED0C" mask="url(#path-1-outside-1_8_49)"/>
</svg>
