<svg width="84" height="85" viewBox="0 0 84 85" fill="none" xmlns="http://www.w3.org/2000/svg">
<circle cx="42.03" cy="42.3681" r="41.9699" fill="#EBEBEB"/>
<path d="M42.9575 15.9855C45.1015 15.9855 52.3611 16.5635 55.7811 23.9862C56.9227 26.4636 56.6397 30.8021 56.4118 34.2892L56.4022 34.4427C56.3711 34.9295 56.3399 35.3996 56.3135 35.8505C56.3687 35.9056 56.8052 36.311 57.7932 36.3493C58.5439 36.3206 59.4097 36.0903 60.3546 35.661C60.6328 35.5339 60.9398 35.5075 61.1508 35.5075C61.4722 35.5075 61.796 35.5675 62.0646 35.6778L62.0814 35.685C62.8464 35.9464 63.3477 36.4668 63.3596 37.0113C63.3692 37.5221 62.9663 38.2919 60.9902 39.0474C60.7863 39.1265 60.5249 39.2057 60.2443 39.292C59.1147 39.6398 57.4095 40.165 56.8867 41.3569C56.6013 42.0093 56.6924 42.8031 57.1601 43.7192C57.1649 43.7288 57.1697 43.736 57.1721 43.7456C57.3136 44.067 60.7287 51.6072 68.3529 52.8231C68.6335 52.8687 68.8349 53.1109 68.8181 53.3867C68.8109 53.4898 68.7846 53.593 68.7414 53.6961C68.4272 54.4084 67.0098 55.4181 62.0502 56.1591C61.6449 56.2191 61.4866 56.7299 61.2468 57.802C61.158 58.1929 61.0693 58.5766 60.947 58.9795C60.8415 59.3273 60.616 59.4927 60.2371 59.4927H60.1771C59.9157 59.4927 59.5392 59.4472 59.0667 59.3584C58.2273 59.2001 57.2872 59.0539 56.0881 59.0539C55.3902 59.0539 54.6659 59.1138 53.9392 59.2289C52.4499 59.4688 51.1884 60.3345 49.8525 61.2483C47.9003 62.5769 45.8954 63.9511 42.768 63.9511C42.6313 63.9511 42.497 63.9464 42.3651 63.9392C42.2812 63.9464 42.1924 63.9511 42.1037 63.9511C38.9787 63.9511 36.9714 62.5769 35.0312 61.2507C33.6929 60.3345 32.429 59.4664 30.9373 59.2289C30.2106 59.1138 29.4887 59.0539 28.7884 59.0539C27.5293 59.0539 26.5341 59.2409 25.8098 59.3776C25.3685 59.4616 24.9872 59.5335 24.6994 59.5335C24.3972 59.5335 24.071 59.4712 23.9271 58.9987C23.8048 58.591 23.7137 58.1953 23.6273 57.8139C23.4043 56.8306 23.2484 56.2263 22.8239 56.1639C17.8667 55.4229 16.4469 54.4108 16.1327 53.6937C16.0895 53.5906 16.0632 53.4898 16.056 53.3867C16.0416 53.1109 16.243 52.8687 16.5212 52.8231C24.1406 51.6072 27.5581 44.0622 27.702 43.7432C27.7068 43.7336 27.7116 43.7264 27.714 43.7168C28.1793 42.8007 28.2728 42.0045 27.9874 41.3545C27.4646 40.1602 25.7594 39.6374 24.6298 39.2896C24.354 39.2057 24.0902 39.1241 23.884 39.045C21.6296 38.1816 21.4449 37.2966 21.5312 36.8458C21.6823 36.0759 22.7424 35.5387 23.601 35.5387C23.836 35.5387 24.0422 35.5795 24.2173 35.6586C25.2318 36.1191 26.1455 36.3517 26.9322 36.3517C28.021 36.3517 28.4982 35.908 28.5534 35.8505C28.5246 35.3516 28.4911 34.8312 28.4575 34.2916C28.232 30.8045 27.9514 26.4708 29.0882 23.9934C32.5034 16.5731 39.751 15.9975 41.8878 15.9975C41.9478 15.9951 42.8304 15.9855 42.8304 15.9855H42.9575ZM42.9575 11.189H42.8304C42.7992 11.189 42.2668 11.1986 41.8902 11.2058V11.201C39.0291 11.201 29.34 11.978 24.733 21.986C23.5722 24.509 23.3851 27.6364 23.4715 30.7445C20.711 30.7997 17.4805 32.6104 16.8282 35.9176C16.5908 37.1384 16.279 41.2658 22.1692 43.525C22.2004 43.537 22.2339 43.549 22.2675 43.561C21.09 45.2422 18.9243 47.5829 15.7682 48.0865C13.0557 48.511 11.1155 50.9045 11.269 53.6529C11.3122 54.3388 11.4657 54.9768 11.7271 55.5835C12.9574 58.3895 15.9385 59.6654 19.3464 60.4089C20.0827 62.7928 22.1788 64.3253 24.7018 64.3253C25.4332 64.3253 26.0952 64.2006 26.6804 64.0902C27.3303 63.9679 27.9778 63.8456 28.7908 63.8456C29.2369 63.8456 29.7046 63.884 30.1866 63.9607C30.6039 64.0279 31.5489 64.673 32.3067 65.1935C34.5035 66.6972 37.4894 68.7429 42.1037 68.7429C42.2044 68.7429 42.3052 68.7405 42.4035 68.7381C42.5234 68.7453 42.6457 68.7477 42.768 68.7477C47.3607 68.7477 50.349 66.7116 52.5314 65.2246C53.3732 64.649 54.2774 64.0303 54.7019 63.9631C55.1719 63.8888 55.642 63.8504 56.0881 63.8504C56.8531 63.8504 57.4527 63.9344 58.1722 64.0711C58.9636 64.2197 59.5991 64.2893 60.1747 64.2893C62.7217 64.2893 64.7938 62.7664 65.5253 60.4089C68.9285 59.6702 71.9071 58.4015 73.1278 55.6315C73.4084 54.9816 73.5619 54.3436 73.6027 53.6937C73.7586 50.9213 71.8304 48.5278 69.1203 48.0865C65.9522 47.5805 63.7817 45.2398 62.6066 43.561C62.6426 43.549 62.6761 43.5346 62.7073 43.5226C67.5135 41.6831 68.1826 38.5989 68.1538 36.9249C68.1011 34.3612 66.3719 32.1236 63.7362 31.1786C63.0695 30.91 62.2397 30.7398 61.3979 30.711C61.477 27.6604 61.2851 24.473 60.1364 21.974C55.5269 11.9684 45.8234 11.189 42.9575 11.189Z" fill="black"/>
</svg>
